<svg width="16" height="16" viewBox="0 0 16 16" fill="none" xmlns="http://www.w3.org/2000/svg">
<path d="M9.81641 1.66258C9.68649 1.66824 9.56389 1.72429 9.47461 1.81883L3.80794 7.65217C3.71736 7.74548 3.66669 7.87042 3.66669 8.00047C3.66669 8.13053 3.71736 8.25547 3.80794 8.34878L9.47461 14.1821C9.5201 14.2303 9.5747 14.269 9.63526 14.2958C9.69581 14.3227 9.76111 14.3373 9.82735 14.3388C9.89359 14.3402 9.95946 14.3285 10.0211 14.3042C10.0828 14.28 10.139 14.2437 10.1866 14.1976C10.2341 14.1514 10.272 14.0963 10.298 14.0354C10.3241 13.9744 10.3377 13.909 10.3383 13.8427C10.3388 13.7764 10.3261 13.7107 10.301 13.6494C10.2759 13.5881 10.2389 13.5324 10.1921 13.4855L4.86393 8.00047L10.1921 2.51545C10.2632 2.44417 10.3112 2.35306 10.3297 2.25406C10.3482 2.15505 10.3364 2.05277 10.2958 1.96059C10.2552 1.86842 10.1877 1.79065 10.1022 1.73748C10.0166 1.6843 9.91703 1.6582 9.81641 1.66258Z" fill="#7A7A79"/>
</svg>
