<svg width="24" height="24" viewBox="0 0 24 24" fill="none" xmlns="http://www.w3.org/2000/svg">
<path d="M5.25 2.5C3.458 2.5 2 3.958 2 5.75V16.7256C2 17.2066 2.26631 17.6414 2.69531 17.8594C2.87831 17.9529 3.07644 17.998 3.27344 17.998C3.53644 17.998 3.79753 17.9164 4.01953 17.7549L8.49316 14.5H14.75C16.542 14.5 18 13.042 18 11.25V5.75C18 3.958 16.542 2.5 14.75 2.5H5.25ZM6.75 6H13.25C13.664 6 14 6.3355 14 6.75C14 7.1645 13.664 7.5 13.25 7.5H6.75C6.336 7.5 6 7.1645 6 6.75C6 6.3355 6.336 6 6.75 6ZM19 7.0127V11.25C19 13.5935 17.0935 15.5 14.75 15.5H8.81934L6.38086 17.2734C6.92786 18.2999 8.0085 19 9.25 19H15.5068L19.9805 22.2539C20.2025 22.4159 20.4636 22.498 20.7266 22.498C20.9236 22.498 21.1217 22.4519 21.3047 22.3584C21.7332 22.1404 22 21.7056 22 21.2246V10.25C22 8.5425 20.6755 7.1412 19 7.0127ZM6.75 9.5H11.75C12.164 9.5 12.5 9.8355 12.5 10.25C12.5 10.6645 12.164 11 11.75 11H6.75C6.336 11 6 10.6645 6 10.25C6 9.8355 6.336 9.5 6.75 9.5Z" fill="#A7C100"/>
</svg>
