<svg width="40" height="40" viewBox="0 0 40 40" fill="none" xmlns="http://www.w3.org/2000/svg">
<path d="M26.7188 9.06293C26.3281 9.07465 25.9375 9.15668 25.5625 9.28168C24.0625 9.78558 22.7773 10.9418 21.5 12.2192L13.25 20.4692C12.5156 21.2036 11.9531 22.0981 11.7813 23.1567C11.6094 24.2153 11.9297 25.4262 12.8438 26.3442C13.7813 27.2817 15.0352 27.5629 16.0938 27.3754C17.1523 27.1879 18.0391 26.6176 18.7188 25.9379L27.7813 16.8754C28.0781 16.6332 28.2148 16.2465 28.1289 15.8715C28.043 15.5004 27.75 15.2075 27.3789 15.1215C27.0039 15.0356 26.6172 15.1723 26.375 15.4692L17.3125 24.5317C16.8828 24.9614 16.2891 25.309 15.75 25.4067C15.2109 25.5043 14.7539 25.4418 14.25 24.9379C13.7266 24.4145 13.668 23.9731 13.75 23.4692C13.832 22.9653 14.1484 22.3832 14.6563 21.8754L22.9063 13.6254C24.1133 12.4184 25.2734 11.4965 26.1875 11.1879C27.1016 10.8793 27.7578 10.9457 28.8125 12.0004C29.6016 12.7856 30.4375 13.4965 30.6563 14.2192C30.7656 14.5786 30.7656 14.9379 30.5313 15.5317C30.2969 16.1254 29.7852 16.934 28.8125 17.9067C24.6641 22.0551 21.4805 25.2387 19.75 26.9692C18.2148 28.5043 16.7617 29.5317 15.4688 29.8129C14.1758 30.0942 12.9492 29.7934 11.3438 28.1879C9.73828 26.5825 9.17578 25.0239 9.34375 23.4067C9.51172 21.7895 10.4961 20.0356 12.3125 18.2192C14.5078 16.0239 19.0938 11.8129 19.0938 11.8129C19.3984 11.5864 19.5469 11.2036 19.4766 10.8286C19.4063 10.4536 19.1289 10.1528 18.7656 10.0512C18.3984 9.94574 18.0039 10.0629 17.75 10.3442C17.75 10.3442 13.1602 14.5004 10.875 16.7817C8.85156 18.8051 7.57813 20.977 7.34375 23.2192C7.10938 25.4614 8.01563 27.6723 9.9375 29.5942C11.8555 31.5161 13.9297 32.2036 15.875 31.7817C17.8203 31.3598 19.5039 30.0278 21.1563 28.3754C22.8867 26.645 26.0703 23.4614 30.2188 19.3129C31.3203 18.2114 32.0313 17.2309 32.4063 16.2817C32.7813 15.3325 32.7969 14.3989 32.5625 13.6254C32.0977 12.0786 30.8438 11.2153 30.2188 10.5942C29.5039 9.87933 28.7109 9.42621 27.9063 9.21918C27.5039 9.11371 27.1094 9.05121 26.7188 9.06293Z" fill="#ADADAC"/>
</svg>
