<svg width="40" height="40" viewBox="0 0 40 40" fill="none" xmlns="http://www.w3.org/2000/svg">
<g clip-path="url(#clip0_308_6974)">
<path fill-rule="evenodd" clip-rule="evenodd" d="M20 0C8.95431 0 0 8.95431 0 20C0 31.0457 8.95431 40 20 40C31.0457 40 40 31.0457 40 20C40 8.95431 31.0457 0 20 0ZM11.6667 14.0104C11.6667 12.7182 12.7182 11.6667 14.0104 11.6667H20V17.6562C20 18.9484 21.0516 20 22.3438 20H28.3333V25.9896C28.3333 27.2818 27.2818 28.3333 25.9896 28.3333H14.0104C12.7182 28.3333 11.6667 27.2818 11.6667 25.9896V14.0104ZM21.5625 17.6562V12.1244C25.0411 13.7595 26.4596 15.112 27.8756 18.4375H22.3438C21.913 18.4375 21.5625 18.087 21.5625 17.6562Z" fill="#7C5BFF"/>
</g>
<defs>
<clipPath id="clip0_308_6974">
<rect width="40" height="40" fill="white"/>
</clipPath>
</defs>
</svg>
