<svg width="40" height="40" viewBox="0 0 40 40" fill="none" xmlns="http://www.w3.org/2000/svg">
<g clip-path="url(#clip0_308_6954)">
<path d="M20 0C8.954 0 0 8.954 0 20C0 31.046 8.954 40 20 40C31.046 40 40 31.046 40 20C40 8.954 31.046 0 20 0ZM15.0801 12C16.1851 12 17.0801 12.895 17.0801 14V26C17.0801 27.105 16.1851 28 15.0801 28C13.9751 28 13.0801 27.105 13.0801 26V14C13.0801 12.895 13.9751 12 15.0801 12ZM25.0801 12C26.1851 12 27.0801 12.895 27.0801 14V26C27.0801 27.105 26.1851 28 25.0801 28C23.9751 28 23.0801 27.105 23.0801 26V14C23.0801 12.895 23.9751 12 25.0801 12Z" fill="white"/>
</g>
<defs>
<clipPath id="clip0_308_6954">
<rect width="40" height="40" fill="white"/>
</clipPath>
</defs>
</svg>
