<svg width="40" height="40" viewBox="0 0 40 40" fill="none" xmlns="http://www.w3.org/2000/svg">
<path d="M20 0C8.954 0 0 8.954 0 20C0 31.046 8.954 40 20 40C31.046 40 40 31.046 40 20C40 8.954 31.046 0 20 0ZM15.5781 12.1543C15.8171 12.1543 16.0573 12.2111 16.2793 12.3281L28.332 18.6738C28.827 18.9338 29.1338 19.443 29.1328 20.002C29.1328 20.561 28.827 21.0681 28.332 21.3281L16.2793 27.6719C16.0583 27.7879 15.8171 27.8457 15.5781 27.8457C15.3101 27.8457 15.0437 27.7729 14.8047 27.6289C14.3507 27.3549 14.0801 26.8738 14.0801 26.3438V13.6562C14.0801 13.1263 14.3507 12.6451 14.8047 12.3711C15.0437 12.2261 15.3111 12.1543 15.5781 12.1543Z" fill="white"/>
</svg>
