<svg width="24" height="25" viewBox="0 0 24 25" fill="none" xmlns="http://www.w3.org/2000/svg">
<path d="M11.9951 3.5C8.34452 3.5 4.9809 5.13957 2.69331 7.67188C2.62726 7.74497 2.57626 7.83037 2.54322 7.92318C2.51017 8.01598 2.49573 8.11439 2.50072 8.21278C2.50571 8.31117 2.53002 8.40762 2.57228 8.49661C2.61454 8.5856 2.67392 8.6654 2.74702 8.73145C2.89465 8.86483 3.08922 8.93411 3.28793 8.92403C3.38632 8.91905 3.48276 8.89473 3.57175 8.85247C3.66075 8.81021 3.74054 8.75083 3.80659 8.67773C5.819 6.45004 8.79561 5 11.9951 5C15.1945 5 18.1769 6.45069 20.1943 8.67871C20.2595 8.7548 20.3393 8.81704 20.429 8.86176C20.5187 8.90648 20.6165 8.93277 20.7165 8.93908C20.8165 8.94538 20.9168 8.93158 21.0114 8.89848C21.106 8.86538 21.193 8.81365 21.2673 8.74636C21.3416 8.67907 21.4016 8.59757 21.4439 8.50668C21.4861 8.4158 21.5097 8.31736 21.5133 8.2172C21.5169 8.11704 21.5003 8.01718 21.4647 7.92351C21.429 7.82985 21.3749 7.74428 21.3056 7.67188C19.013 5.13989 15.6456 3.5 11.9951 3.5ZM20.1894 12.4883C20.0287 12.4965 19.875 12.5563 19.7508 12.6586C19.6267 12.7609 19.5387 12.9005 19.4999 13.0566C18.6973 16.0672 15.5393 18.5 11.9951 18.5C8.45084 18.5 5.30293 16.0684 4.49995 13.0566C4.45987 12.8977 4.36886 12.7563 4.24082 12.6541C4.11279 12.5518 3.95479 12.4942 3.79096 12.4902C3.67361 12.4874 3.55722 12.5121 3.45116 12.5624C3.3451 12.6128 3.25234 12.6873 3.18033 12.78C3.10833 12.8727 3.05909 12.981 3.03658 13.0963C3.01407 13.2115 3.01892 13.3304 3.05073 13.4434C3.29055 14.3429 3.69471 15.1842 4.2187 15.9502L2.79487 17.1367C2.71646 17.1989 2.65128 17.2762 2.60319 17.3639C2.55509 17.4517 2.52504 17.5482 2.51481 17.6477C2.50458 17.7473 2.51438 17.8479 2.54362 17.9436C2.57287 18.0393 2.62097 18.1282 2.6851 18.205C2.74922 18.2819 2.82807 18.3451 2.91701 18.391C3.00595 18.4369 3.10317 18.4645 3.20294 18.4722C3.30272 18.48 3.40304 18.4677 3.49799 18.436C3.59294 18.4044 3.6806 18.3541 3.75581 18.2881L5.25092 17.041C5.79403 17.6019 6.37671 18.0956 7.05464 18.5107L6.13764 20.0996C6.08837 20.185 6.0564 20.2792 6.04354 20.3769C6.03069 20.4746 6.03721 20.5739 6.06273 20.6691C6.08825 20.7642 6.13227 20.8535 6.19228 20.9316C6.25229 21.0098 6.32711 21.0754 6.41246 21.1247C6.49782 21.1739 6.59205 21.2059 6.68976 21.2187C6.78747 21.2315 6.88675 21.225 6.98193 21.1994C7.07711 21.1739 7.16633 21.1299 7.24449 21.0698C7.32264 21.0098 7.38821 20.935 7.43745 20.8496L8.38667 19.2041C9.29325 19.5793 10.2361 19.8578 11.2499 19.9385V21.75C11.2485 21.8494 11.2669 21.9481 11.304 22.0403C11.341 22.1325 11.396 22.2164 11.4658 22.2872C11.5356 22.358 11.6188 22.4142 11.7105 22.4526C11.8022 22.4909 11.9006 22.5107 11.9999 22.5107C12.0993 22.5107 12.1977 22.4909 12.2894 22.4526C12.3811 22.4142 12.4643 22.358 12.5341 22.2872C12.6039 22.2164 12.6589 22.1325 12.6959 22.0403C12.733 21.9481 12.7514 21.8494 12.7499 21.75V19.9375C13.7626 19.856 14.7051 19.5773 15.6113 19.2021L16.5624 20.8496C16.6117 20.935 16.6773 21.0098 16.7554 21.0698C16.8336 21.1299 16.9228 21.1739 17.018 21.1994C17.1131 21.225 17.2124 21.2315 17.3101 21.2187C17.4078 21.2059 17.5021 21.1739 17.5874 21.1247C17.6728 21.0754 17.7476 21.0098 17.8076 20.9316C17.8676 20.8535 17.9116 20.7642 17.9372 20.6691C17.9627 20.5739 17.9692 20.4746 17.9564 20.3769C17.9435 20.2792 17.9115 20.185 17.8623 20.0996L16.9443 18.5088C17.622 18.0939 18.2039 17.6003 18.747 17.04L20.2441 18.2881C20.3193 18.3541 20.407 18.4044 20.5019 18.436C20.5969 18.4677 20.6972 18.48 20.7969 18.4722C20.8967 18.4645 20.9939 18.4369 21.0829 18.391C21.1718 18.3451 21.2507 18.2819 21.3148 18.205C21.3789 18.1282 21.427 18.0393 21.4563 17.9436C21.4855 17.8479 21.4953 17.7473 21.4851 17.6477C21.4749 17.5482 21.4448 17.4517 21.3967 17.3639C21.3486 17.2762 21.2834 17.1989 21.205 17.1367L19.7802 15.9492C20.3044 15.1836 20.7094 14.3425 20.9492 13.4434C20.9819 13.3286 20.9869 13.2077 20.9635 13.0906C20.9402 12.9736 20.8892 12.8638 20.8149 12.7704C20.7406 12.677 20.6451 12.6027 20.5363 12.5536C20.4275 12.5045 20.3086 12.4822 20.1894 12.4883Z" fill="#616160"/>
</svg>
