<svg width="24" height="25" viewBox="0 0 24 25" fill="none" xmlns="http://www.w3.org/2000/svg">
<g clip-path="url(#clip0_305_6257)">
<path d="M11.9932 5C6.33336 5 1.34644 8.92296 0.0234403 14.0635C-0.0260288 14.2562 0.00307651 14.4606 0.104353 14.6319C0.20563 14.8031 0.370783 14.9271 0.563479 14.9766C0.756176 15.026 0.960631 14.9969 1.13187 14.8956C1.3031 14.7944 1.4271 14.6292 1.47657 14.4365C2.61657 10.007 7.03298 6.5 11.9932 6.5C16.9534 6.5 21.3838 10.0083 22.5234 14.4365C22.5729 14.6292 22.6969 14.7944 22.8681 14.8956C23.0394 14.9969 23.2438 15.026 23.4365 14.9766C23.6292 14.9271 23.7944 14.8031 23.8957 14.6319C23.9969 14.4606 24.026 14.2562 23.9766 14.0635C22.6532 8.92173 17.653 5 11.9932 5ZM12.001 9C9.34095 9 7.16895 11.172 7.16895 13.832C7.16895 16.4921 9.34095 18.665 12.001 18.665C14.661 18.665 16.834 16.4921 16.834 13.832C16.834 11.172 14.661 9 12.001 9ZM12.001 10.5C13.8504 10.5 15.334 11.9827 15.334 13.832C15.334 15.6814 13.8504 17.165 12.001 17.165C10.1516 17.165 8.66895 15.6814 8.66895 13.832C8.66895 11.9827 10.1516 10.5 12.001 10.5Z" fill="#616160"/>
</g>
<defs>
<clipPath id="clip0_305_6257">
<rect width="24" height="24" fill="white" transform="translate(0 0.5)"/>
</clipPath>
</defs>
</svg>
