<svg width="16" height="16" viewBox="0 0 16 16" fill="none" xmlns="http://www.w3.org/2000/svg">
<path d="M2.96478 11.2655V1.25926C2.96478 1.03295 2.78137 0.85 2.55552 0.85C2.32966 0.85 2.14626 1.03295 2.14626 1.25926V11.2655C1.25902 11.4544 0.590723 12.2418 0.590723 13.1851C0.590723 14.2684 1.47193 15.1499 2.55552 15.1499C3.63911 15.1499 4.52032 14.2684 4.52032 13.1851C4.52032 12.2418 3.85202 11.4544 2.96478 11.2655ZM2.55552 14.3313C1.92359 14.3313 1.40924 13.817 1.40924 13.1851C1.40924 12.5531 1.92359 12.0388 2.55552 12.0388C3.18745 12.0388 3.7018 12.5531 3.7018 13.1851C3.7018 13.817 3.18745 14.3313 2.55552 14.3313ZM8.40905 5.98347V1.25926C8.40905 1.03295 8.22565 0.85 7.9998 0.85C7.77394 0.85 7.59054 1.03295 7.59054 1.25926V5.95986C6.64656 6.12831 5.92767 6.95454 5.92767 7.94626C5.92767 8.93799 6.64656 9.76421 7.59054 9.93266V14.7406C7.59054 14.9669 7.77394 15.1499 7.9998 15.1499C8.22565 15.1499 8.40905 14.9669 8.40905 14.7406V9.90906C9.29915 9.69922 9.96459 8.90036 9.96459 7.94626C9.96459 6.99217 9.29915 6.1933 8.40905 5.98347ZM7.94613 9.14621C7.28465 9.14621 6.74618 8.60775 6.74618 7.94626C6.74618 7.28476 7.28441 6.74631 7.94613 6.74631C8.60785 6.74631 9.14608 7.28476 9.14608 7.94626C9.14608 8.60775 8.60761 9.14621 7.94613 9.14621ZM15.4091 2.8148C15.4091 1.7315 14.5279 0.85 13.4443 0.85C12.3607 0.85 11.4795 1.7315 11.4795 2.8148C11.4795 3.75809 12.1478 4.5455 13.035 4.73439V14.7406C13.035 14.9669 13.2184 15.1499 13.4443 15.1499C13.6702 15.1499 13.8536 14.9669 13.8536 14.7406V4.73439C14.7408 4.5455 15.4091 3.75809 15.4091 2.8148ZM13.4443 3.96108C12.8124 3.96108 12.298 3.44672 12.298 2.8148C12.298 2.18287 12.8124 1.66851 13.4443 1.66851C14.0762 1.66851 14.5906 2.18287 14.5906 2.8148C14.5906 3.44672 14.0762 3.96108 13.4443 3.96108Z" fill="#616160" stroke="#616160" stroke-width="0.3"/>
</svg>
