<svg width="24" height="24" viewBox="0 0 24 24" fill="none" xmlns="http://www.w3.org/2000/svg">
<path d="M11.9854 2.48644C11.7203 2.49032 11.4677 2.59927 11.2829 2.78934C11.0981 2.97941 10.9964 3.23506 11 3.50011V11.0001H3.50001C3.36749 10.9982 3.23593 11.0227 3.11296 11.0721C2.98999 11.1215 2.87807 11.1949 2.7837 11.2879C2.68933 11.381 2.6144 11.4919 2.56325 11.6141C2.5121 11.7364 2.48576 11.8676 2.48576 12.0001C2.48576 12.1326 2.5121 12.2638 2.56325 12.3861C2.6144 12.5084 2.68933 12.6192 2.7837 12.7123C2.87807 12.8053 2.98999 12.8787 3.11296 12.9281C3.23593 12.9775 3.36749 13.002 3.50001 13.0001H11V20.5001C10.9981 20.6326 11.0226 20.7642 11.072 20.8871C11.1214 21.0101 11.1948 21.122 11.2878 21.2164C11.3809 21.3108 11.4918 21.3857 11.614 21.4369C11.7363 21.488 11.8675 21.5143 12 21.5143C12.1325 21.5143 12.2637 21.488 12.386 21.4369C12.5082 21.3857 12.6191 21.3108 12.7122 21.2164C12.8052 21.122 12.8786 21.0101 12.928 20.8871C12.9774 20.7642 13.0019 20.6326 13 20.5001V13.0001H20.5C20.6325 13.002 20.7641 12.9775 20.887 12.9281C21.01 12.8787 21.1219 12.8053 21.2163 12.7123C21.3107 12.6192 21.3856 12.5084 21.4368 12.3861C21.4879 12.2638 21.5142 12.1326 21.5142 12.0001C21.5142 11.8676 21.4879 11.7364 21.4368 11.6141C21.3856 11.4919 21.3107 11.381 21.2163 11.2879C21.1219 11.1949 21.01 11.1215 20.887 11.0721C20.7641 11.0227 20.6325 10.9982 20.5 11.0001H13V3.50011C13.0018 3.3664 12.9768 3.23369 12.9265 3.10981C12.8761 2.98594 12.8014 2.87342 12.7068 2.77891C12.6122 2.6844 12.4996 2.60983 12.3757 2.55959C12.2518 2.50935 12.1191 2.48448 11.9854 2.48644Z" fill="black"/>
</svg>
