<svg width="24" height="24" viewBox="0 0 24 24" fill="none" xmlns="http://www.w3.org/2000/svg">
<path d="M11.9853 1.48644C11.7203 1.49032 11.4676 1.59927 11.2828 1.78934C11.0981 1.97941 10.9963 2.23506 11 2.50011V3.05968C6.83875 3.52342 3.52328 6.8389 3.05953 11.0001H2.49996C2.36745 10.9982 2.23589 11.0227 2.11292 11.0721C1.98995 11.1215 1.87803 11.1949 1.78366 11.2879C1.68929 11.381 1.61435 11.4919 1.5632 11.6141C1.51206 11.7364 1.48572 11.8676 1.48572 12.0001C1.48572 12.1326 1.51206 12.2638 1.5632 12.3861C1.61435 12.5084 1.68929 12.6192 1.78366 12.7123C1.87803 12.8053 1.98995 12.8787 2.11292 12.9281C2.23589 12.9775 2.36745 13.002 2.49996 13.0001H3.05953C3.52328 17.1613 6.83875 20.4768 11 20.9405V21.5001C10.9981 21.6326 11.0226 21.7642 11.072 21.8871C11.1214 22.0101 11.1948 22.122 11.2878 22.2164C11.3808 22.3108 11.4917 22.3857 11.614 22.4369C11.7362 22.488 11.8674 22.5143 12 22.5143C12.1325 22.5143 12.2637 22.488 12.3859 22.4369C12.5082 22.3857 12.6191 22.3108 12.7121 22.2164C12.8052 22.122 12.8785 22.0101 12.9279 21.8871C12.9774 21.7642 13.0018 21.6326 13 21.5001V20.9405C17.1612 20.4768 20.4766 17.1613 20.9404 13.0001H21.5C21.6325 13.002 21.764 12.9775 21.887 12.9281C22.01 12.8787 22.1219 12.8053 22.2163 12.7123C22.3106 12.6192 22.3856 12.5084 22.4367 12.3861C22.4879 12.2638 22.5142 12.1326 22.5142 12.0001C22.5142 11.8676 22.4879 11.7364 22.4367 11.6141C22.3856 11.4919 22.3106 11.381 22.2163 11.2879C22.1219 11.1949 22.01 11.1215 21.887 11.0721C21.764 11.0227 21.6325 10.9982 21.5 11.0001H20.9404C20.4766 6.8389 17.1612 3.52342 13 3.05968V2.50011C13.0018 2.3664 12.9768 2.23369 12.9264 2.10981C12.8761 1.98594 12.8014 1.87342 12.7068 1.77891C12.6122 1.6844 12.4996 1.60982 12.3757 1.55959C12.2518 1.50935 12.119 1.48448 11.9853 1.48644ZM11 5.07921V5.42296C10.9981 5.55547 11.0226 5.68703 11.072 5.81C11.1214 5.93297 11.1948 6.04489 11.2878 6.13926C11.3808 6.23363 11.4917 6.30857 11.614 6.35971C11.7362 6.41086 11.8674 6.4372 12 6.4372C12.1325 6.4372 12.2637 6.41086 12.3859 6.35971C12.5082 6.30857 12.6191 6.23363 12.7121 6.13926C12.8052 6.04489 12.8785 5.93297 12.9279 5.81C12.9774 5.68703 13.0018 5.55547 13 5.42296V5.07921C16.0721 5.51628 18.4838 7.92798 18.9209 11.0001H18.5771C18.4446 10.9982 18.313 11.0227 18.1901 11.0721C18.0671 11.1215 17.9552 11.1949 17.8608 11.2879C17.7664 11.381 17.6915 11.4919 17.6404 11.6141C17.5892 11.7364 17.5629 11.8676 17.5629 12.0001C17.5629 12.1326 17.5892 12.2638 17.6404 12.3861C17.6915 12.5084 17.7664 12.6192 17.8608 12.7123C17.9552 12.8053 18.0671 12.8787 18.1901 12.9281C18.313 12.9775 18.4446 13.002 18.5771 13.0001H18.9209C18.4838 16.0722 16.0721 18.4839 13 18.921V18.5773C13.0019 18.4435 12.977 18.3106 12.9267 18.1867C12.8764 18.0627 12.8018 17.95 12.7071 17.8554C12.6125 17.7608 12.4999 17.6861 12.3759 17.6358C12.2519 17.5856 12.1191 17.5606 11.9853 17.5626C11.854 17.5645 11.7243 17.5923 11.6037 17.6443C11.4832 17.6964 11.374 17.7716 11.2825 17.8659C11.191 17.9601 11.1189 18.0714 11.0705 18.1935C11.022 18.3155 10.998 18.4459 11 18.5773V18.921C7.92783 18.4839 5.51614 16.0722 5.07906 13.0001H5.42281C5.55532 13.002 5.68689 12.9775 5.80985 12.9281C5.93282 12.8787 6.04474 12.8053 6.13911 12.7123C6.23348 12.6192 6.30842 12.5084 6.35957 12.3861C6.41072 12.2638 6.43705 12.1326 6.43705 12.0001C6.43705 11.8676 6.41072 11.7364 6.35957 11.6141C6.30842 11.4919 6.23348 11.381 6.13911 11.2879C6.04474 11.1949 5.93282 11.1215 5.80985 11.0721C5.68689 11.0227 5.55532 10.9982 5.42281 11.0001H5.07906C5.51614 7.92798 7.92783 5.51628 11 5.07921ZM12 10.0001C11.4695 10.0001 10.9608 10.2108 10.5857 10.5859C10.2107 10.961 9.99996 11.4697 9.99996 12.0001C9.99996 12.5305 10.2107 13.0392 10.5857 13.4143C10.9608 13.7894 11.4695 14.0001 12 14.0001C12.5304 14.0001 13.0391 13.7894 13.4142 13.4143C13.7892 13.0392 14 12.5305 14 12.0001C14 11.4697 13.7892 10.961 13.4142 10.5859C13.0391 10.2108 12.5304 10.0001 12 10.0001Z" fill="#949492"/>
</svg>
