<svg width="197" height="160" viewBox="0 0 197 160" fill="none" xmlns="http://www.w3.org/2000/svg">
<g clip-path="url(#clip0_73_2134)">
<path fill-rule="evenodd" clip-rule="evenodd" d="M81.7432 117.706C90.2312 130.707 102.186 130.438 122.802 130.438C141.162 130.438 164.05 129.583 164.05 111.368V65.2824C164.05 47.2369 150.178 44.6227 132.321 44.6227H119.628C108.162 44.6227 79.9664 72.8666 79.9664 84.3524L79.5603 95.5165L81.7432 117.706Z" fill="#939399"/>
<path fill-rule="evenodd" clip-rule="evenodd" d="M33.9585 87.5304C33.9585 122.691 46.1372 117.668 73.6205 124.082C76.9857 123.871 76.8455 123.615 78.1892 120.673C78.3799 90.3369 76.3877 66.6559 57.7556 54.158C40.0481 55.6341 33.9585 60.1975 33.9585 79.585V87.5304Z" fill="#C8E320"/>
<path fill-rule="evenodd" clip-rule="evenodd" d="M89.4856 22.3748C101.572 40.4554 126.355 43.034 156.118 43.034C157.323 43.1646 158.527 42.297 159.079 41.5542C159.661 40.7713 159.684 39.7703 159.521 38.4576C156.449 26.0484 154.661 0.126221 140.253 0.126221H103.764C92.7766 0.126221 90.3176 12.3598 89.4856 22.3748Z" fill="#C8E320"/>
<path fill-rule="evenodd" clip-rule="evenodd" d="M89.4857 9.66096C92.5289 -3.01629 61.9691 7.36214 53.5936 10.2597C44.5467 13.3891 39.6511 37.0732 38.7053 48.0383C37.1061 66.5825 63.0699 47.0521 67.908 40.4896C76.0231 30.9945 81.8779 31.3121 89.4857 9.66096Z" fill="#C8E320"/>
<path fill-rule="evenodd" clip-rule="evenodd" d="M100.59 109.594H92.8393V82.2774H100.59V109.594ZM96.5559 66.8108L101.466 71.9111L96.5559 77.0566L91.6909 71.9111L96.5559 66.8108ZM108.386 82.7163C109.262 82.6559 110.471 82.5955 112.012 82.55C113.538 82.4896 115.199 82.4288 116.982 82.3837C118.78 82.3382 120.593 82.3079 122.436 82.2927C124.279 82.2774 125.971 82.2774 127.497 82.2774V83.7454L114.837 105.962C115.109 105.992 115.502 106.023 116.015 106.037C116.529 106.068 117.088 106.098 117.692 106.113C118.297 106.128 118.886 106.144 119.445 106.159C120.004 106.174 120.442 106.174 120.774 106.174C122.24 106.174 123.464 106.083 124.4 105.886C125.352 105.69 126.122 105.448 126.727 105.129C127.331 104.827 127.83 104.464 128.208 104.04C128.585 103.631 128.963 103.208 129.311 102.753L130.594 103.51C130.307 104.161 129.96 104.872 129.582 105.644C129.19 106.416 128.676 107.142 128.026 107.824C127.377 108.504 126.546 109.065 125.533 109.534C124.506 109.987 123.222 110.215 121.651 110.215C120.533 110.215 119.158 110.184 117.526 110.124C115.879 110.063 114.263 109.987 112.646 109.897C111.045 109.821 109.594 109.745 108.31 109.685C107.026 109.624 106.18 109.594 105.772 109.594V107.914L118.432 86.0004H117.979C115.894 86.0004 113.93 86.0458 112.102 86.1368C110.274 86.2274 108.839 86.3031 107.796 86.3486L108.386 82.7163ZM147.425 110.124C142.983 110.124 139.599 108.913 137.257 106.507C134.916 104.101 133.737 100.574 133.737 95.928C133.737 93.7489 134.024 91.7815 134.598 90.0111C135.172 88.2555 136.033 86.7572 137.197 85.5313C138.345 84.3055 139.78 83.3674 141.487 82.7014C143.195 82.0354 145.174 81.7024 147.425 81.7024C151.927 81.7024 155.342 82.9284 157.638 85.3799C159.95 87.8316 161.098 91.3278 161.098 95.8527C161.098 98.0621 160.811 100.045 160.237 101.815C159.663 103.571 158.802 105.069 157.638 106.295C156.49 107.521 155.055 108.459 153.348 109.125C151.64 109.791 149.661 110.124 147.425 110.124ZM141.79 95.8979C141.79 99.4694 142.213 102.103 143.074 103.783C143.935 105.462 145.37 106.31 147.38 106.31C148.135 106.31 148.86 106.25 149.54 106.113C150.22 105.977 150.779 105.78 151.232 105.508C151.519 105.372 151.776 105.009 152.003 104.418C152.229 103.843 152.411 103.132 152.577 102.269C152.743 101.422 152.864 100.438 152.94 99.3486C153.015 98.259 153.045 97.1239 153.045 95.928C153.045 92.4475 152.607 89.8444 151.731 88.1041C150.87 86.3788 149.45 85.5163 147.501 85.5163C146.76 85.5163 146.05 85.592 145.34 85.7434C144.63 85.8795 144.011 86.1215 143.467 86.4545C143.18 86.6208 142.923 86.9993 142.696 87.5594C142.47 88.1191 142.303 88.8305 142.168 89.6781C142.031 90.5406 141.941 91.4941 141.88 92.5684C141.82 93.6277 141.79 94.7326 141.79 95.8979Z" fill="#C8E320" stroke="white" stroke-width="0.7087"/>
<path d="M11.818 133.704H184.928C190.738 133.704 195.491 138.465 195.491 144.285V147.827C195.491 153.647 190.738 158.408 184.928 158.408H11.818C6.00855 158.408 1.25537 153.647 1.25537 147.827V144.285C1.25537 138.465 6.00855 133.704 11.818 133.704V133.704Z" stroke="#C8E320" stroke-width="2.8346"/>
<path fill-rule="evenodd" clip-rule="evenodd" d="M172.92 153.095V143.381C172.92 142.514 172.75 141.88 172.409 141.471C172.057 141.061 171.492 140.861 170.703 140.861C170.116 140.861 169.445 140.981 168.677 141.222C167.899 141.471 167.238 141.76 166.673 142.105V153.095H161.204V138.605H166.076L166.545 140.299H166.609C166.982 140.106 167.43 139.897 167.941 139.673C168.443 139.448 168.997 139.231 169.573 139.03C170.159 138.822 170.767 138.653 171.406 138.508C172.035 138.372 172.675 138.3 173.293 138.3C174.317 138.3 175.234 138.476 176.044 138.838C176.854 139.199 177.472 139.753 177.888 140.483C178.283 140.283 178.763 140.058 179.328 139.801C179.892 139.552 180.49 139.311 181.14 139.086C181.78 138.862 182.44 138.669 183.101 138.525C183.773 138.372 184.423 138.3 185.042 138.3C185.756 138.3 186.417 138.388 187.025 138.573C187.643 138.749 188.176 139.014 188.634 139.368C189.093 139.721 189.455 140.162 189.711 140.7C189.978 141.23 190.105 141.856 190.105 142.579V153.095H184.636V143.381C184.636 142.514 184.466 141.88 184.125 141.471C183.773 141.061 183.208 140.861 182.419 140.861C181.833 140.861 181.161 140.981 180.394 141.222C179.615 141.471 178.954 141.76 178.389 142.105V153.095H172.92Z" fill="#C8E320" stroke="white" stroke-width="0.7087"/>
<path fill-rule="evenodd" clip-rule="evenodd" d="M143.913 153.264H138.444V129.51L143.913 128.667V142.708C143.913 142.796 143.913 142.933 143.913 143.101C143.913 143.278 143.913 143.462 143.903 143.655C143.892 143.856 143.881 144.04 143.871 144.225C143.86 144.402 143.849 144.53 143.849 144.61C144.287 144.233 144.766 143.816 145.267 143.35C145.779 142.892 146.291 142.435 146.802 141.985C147.314 141.544 147.794 141.126 148.252 140.741C148.711 140.356 149.094 140.051 149.414 139.81C149.724 139.593 150.011 139.408 150.288 139.264C150.555 139.111 150.832 138.991 151.11 138.895C151.397 138.798 151.696 138.734 152.037 138.686C152.367 138.638 152.741 138.614 153.156 138.614C153.636 138.614 154.169 138.646 154.755 138.71C155.331 138.774 155.768 138.838 156.067 138.919V140.332H155.971C155.246 140.332 154.595 140.372 154.052 140.46C153.497 140.548 152.986 140.701 152.506 140.918C152.026 141.134 151.44 141.48 150.736 141.937C150.043 142.403 149.371 142.892 148.721 143.414C149.02 143.8 149.35 144.273 149.724 144.835C150.097 145.389 150.502 145.967 150.928 146.569C151.355 147.179 151.813 147.773 152.303 148.36C152.794 148.945 153.295 149.475 153.817 149.949C154.34 150.415 154.873 150.8 155.438 151.089C156.003 151.378 156.579 151.522 157.154 151.522C157.368 151.522 157.57 151.506 157.783 151.474V152.839C157.549 152.919 157.261 153 156.909 153.072C156.557 153.152 156.173 153.224 155.768 153.289C155.363 153.345 154.947 153.401 154.532 153.441C154.116 153.481 153.743 153.497 153.412 153.497C152.389 153.497 151.493 153.297 150.726 152.895C149.947 152.502 149.244 151.964 148.615 151.298C147.975 150.631 147.389 149.877 146.845 149.026C146.312 148.183 145.736 147.316 145.129 146.417L143.913 147.404V153.264Z" fill="#C8E320" stroke="white" stroke-width="0.7087"/>
<path fill-rule="evenodd" clip-rule="evenodd" d="M122.477 140.312L120.419 139.798V138.932L126.315 135.777H127.818L127.882 138.313H133.724L133.468 139.911C133.031 139.975 132.498 140.031 131.869 140.079C131.229 140.128 130.622 140.16 130.035 140.192C129.353 140.24 128.639 140.288 127.914 140.336V148.468C127.914 148.99 128.042 149.424 128.287 149.777C128.543 150.13 129.054 150.307 129.854 150.307C130.057 150.307 130.345 150.299 130.696 150.283C131.048 150.267 131.421 150.243 131.805 150.21C132.189 150.178 132.562 150.146 132.924 150.106C133.287 150.066 133.596 150.034 133.852 150.002V151.198C133.394 151.423 132.86 151.648 132.253 151.872C131.656 152.097 131.016 152.306 130.334 152.482C129.662 152.667 128.98 152.811 128.287 152.916C127.605 153.028 126.944 153.084 126.325 153.084C125.846 153.084 125.377 153.052 124.918 152.98C124.46 152.908 124.044 152.771 123.681 152.571C123.319 152.362 123.021 152.081 122.807 151.712C122.583 151.342 122.477 150.861 122.477 150.259V140.312ZM106.72 140.457C106.581 140.545 106.443 140.722 106.304 140.987C106.165 141.243 106.048 141.548 105.942 141.902C105.835 142.255 105.76 142.624 105.696 143.009C105.632 143.387 105.6 143.764 105.6 144.125L111.624 143.909C111.571 143.491 111.475 143.05 111.347 142.592C111.219 142.143 111.038 141.725 110.803 141.348C110.558 140.971 110.27 140.657 109.907 140.409C109.556 140.16 109.129 140.031 108.628 140.031C108.276 140.031 107.946 140.063 107.626 140.127C107.317 140.192 107.018 140.296 106.72 140.457ZM109.321 138.008C110.227 138.008 111.123 138.105 111.986 138.305C112.85 138.498 113.65 138.827 114.374 139.293C115.099 139.75 115.739 140.368 116.261 141.147C116.795 141.926 117.199 142.889 117.466 144.053V144.238C117.306 144.414 117.082 144.567 116.795 144.711C116.517 144.856 116.144 144.976 115.686 145.073C115.227 145.177 114.662 145.273 114.001 145.362C113.33 145.442 112.53 145.514 111.592 145.554L105.537 145.908V146.526C105.537 147.65 105.931 148.581 106.72 149.319C107.52 150.058 108.703 150.427 110.281 150.427C110.931 150.427 111.603 150.379 112.317 150.275C113.02 150.17 113.692 150.05 114.332 149.913C114.961 149.769 115.547 149.624 116.08 149.472C116.613 149.327 117.008 149.199 117.285 149.087L117.754 150.146C117.168 150.475 116.507 150.813 115.782 151.166C115.057 151.519 114.268 151.84 113.436 152.121C112.605 152.402 111.73 152.635 110.803 152.811C109.875 152.996 108.916 153.084 107.946 153.084C106.794 153.084 105.728 152.956 104.737 152.699C103.756 152.434 102.903 152.025 102.178 151.463C101.464 150.901 100.899 150.162 100.483 149.247C100.067 148.34 99.8542 147.232 99.8542 145.932C99.8542 144.479 100.089 143.242 100.569 142.231C101.048 141.219 101.72 140.401 102.573 139.782C103.426 139.164 104.428 138.715 105.579 138.434C106.741 138.153 107.989 138.008 109.321 138.008ZM83.9906 152.803H78.5216V129.049L83.9906 128.206V142.247C83.9906 142.335 83.9906 142.472 83.9906 142.64C83.9906 142.817 83.9906 143.001 83.98 143.194C83.9696 143.395 83.9588 143.579 83.9482 143.764C83.9374 143.941 83.9268 144.069 83.9268 144.15C84.364 143.772 84.8437 143.355 85.3445 142.889C85.8563 142.432 86.3681 141.974 86.8799 141.524C87.3917 141.083 87.8714 140.665 88.3297 140.28C88.7881 139.895 89.1719 139.59 89.4918 139.349C89.801 139.132 90.0888 138.947 90.366 138.803C90.6324 138.65 90.9095 138.53 91.187 138.434C91.4748 138.337 91.7733 138.273 92.1143 138.225C92.4449 138.177 92.818 138.153 93.2339 138.153C93.7136 138.153 94.2465 138.185 94.8328 138.249C95.4085 138.313 95.8457 138.377 96.1442 138.458V139.871H96.0483C95.3232 139.871 94.673 139.911 94.1294 139.999C93.5749 140.087 93.063 140.24 92.5833 140.457C92.1036 140.673 91.5172 141.019 90.8136 141.476C90.1209 141.942 89.449 142.432 88.7988 142.953C89.0973 143.339 89.4279 143.812 89.801 144.374C90.174 144.928 90.5792 145.506 91.0058 146.108C91.432 146.718 91.8903 147.313 92.3807 147.899C92.8711 148.485 93.3723 149.014 93.8948 149.488C94.4172 149.954 94.9501 150.339 95.5151 150.628C96.0803 150.917 96.656 151.061 97.2317 151.061C97.445 151.061 97.6472 151.045 97.8605 151.013V152.378C97.6261 152.458 97.3383 152.539 96.9863 152.611C96.6346 152.691 96.2509 152.763 95.8457 152.828C95.4405 152.884 95.0247 152.94 94.6091 152.98C94.1932 153.02 93.8202 153.036 93.4896 153.036C92.4663 153.036 91.5707 152.836 90.8032 152.434C90.0249 152.041 89.3213 151.503 88.6921 150.837C88.0526 150.17 87.4663 149.416 86.9224 148.565C86.3895 147.722 85.8138 146.855 85.2061 145.956L83.9906 146.943V152.803ZM74.4278 141.581C74.0122 141.468 73.5643 141.38 73.0846 141.308C72.6049 141.235 72.1465 141.203 71.7093 141.203C71.4001 141.203 71.1229 141.219 70.8672 141.259C70.6218 141.3 70.3875 141.372 70.1635 141.46C69.9502 141.557 69.7266 141.685 69.5133 141.837C69.2893 141.998 69.0442 142.183 68.7776 142.399V152.803H63.3085V138.313H68.2126L68.6816 140.617H68.7137C68.8628 140.449 69.0336 140.248 69.2469 140.015C69.4491 139.79 69.6731 139.566 69.9184 139.333C70.1529 139.108 70.4089 138.899 70.6646 138.715C70.931 138.522 71.1978 138.394 71.4642 138.313C71.9439 138.185 72.4876 138.105 73.0846 138.064C73.6923 138.024 74.3532 138.008 75.0569 138.008L74.4278 141.581ZM51.571 149.978C51.5497 149.913 51.5283 149.753 51.5071 149.496C51.4858 149.231 51.4644 148.902 51.443 148.508C51.4216 148.107 51.4005 147.65 51.3899 147.144C51.3791 146.63 51.3791 146.092 51.3791 145.53C50.0252 145.53 49.0017 145.586 48.3087 145.707C47.6264 145.827 47.2001 145.972 47.0293 146.14C46.9441 146.205 46.8802 146.325 46.8267 146.494C46.7736 146.67 46.7308 146.863 46.699 147.072C46.667 147.28 46.6456 147.505 46.6349 147.73C46.6244 147.955 46.6244 148.163 46.6244 148.356C46.6244 149.014 46.7415 149.544 46.9869 149.954C47.2212 150.363 47.6264 150.564 48.1916 150.564C48.7884 150.564 49.3747 150.507 49.9293 150.395C50.4729 150.291 51.0272 150.146 51.571 149.978ZM58.3195 150.66C58.7777 150.66 59.4069 150.572 60.2169 150.403V151.391C59.9291 151.591 59.5881 151.792 59.1936 151.993C58.7885 152.185 58.3726 152.354 57.9249 152.506C57.4771 152.659 57.008 152.771 56.539 152.86C56.0593 152.948 55.5902 152.988 55.1316 152.988C54.6308 152.988 54.2043 152.932 53.8419 152.82C53.4899 152.715 53.1807 152.579 52.9249 152.41C52.6692 152.25 52.4452 152.057 52.264 151.832C52.0935 151.615 51.9441 151.407 51.8161 151.198C51.3577 151.439 50.8994 151.664 50.4515 151.896C50.0039 152.121 49.5349 152.322 49.0444 152.49C48.5647 152.667 48.0422 152.811 47.4986 152.916C46.9655 153.028 46.3578 153.084 45.6861 153.084C44.1935 153.084 43.0104 152.731 42.1466 152.025C41.2831 151.318 40.8462 150.251 40.8462 148.83C40.8462 148.075 40.974 147.417 41.2406 146.847C41.4964 146.285 41.9123 145.819 42.4879 145.45C43.0636 145.081 43.799 144.8 44.7053 144.599C45.6116 144.406 46.7204 144.294 48.0316 144.262L51.3471 144.19V142.103C51.3471 141.54 51.1445 141.123 50.7394 140.858C50.3345 140.593 49.6415 140.457 48.6607 140.457C47.9783 140.457 47.1788 140.521 46.2725 140.641C45.3662 140.77 44.4175 140.979 43.4153 141.284L42.6691 139.774C43.33 139.558 44.023 139.341 44.7374 139.124C45.4621 138.915 46.1872 138.723 46.923 138.562C47.6691 138.394 48.4153 138.265 49.1722 138.161C49.94 138.056 50.6969 138.008 51.443 138.008C52.2958 138.008 53.0529 138.064 53.7246 138.185C54.3855 138.305 54.9505 138.506 55.3984 138.787C55.846 139.068 56.1873 139.445 56.4216 139.911C56.667 140.385 56.7843 140.962 56.7843 141.653V148.332C56.7843 149.881 57.2958 150.66 58.3195 150.66ZM19.1511 152.803V143.09C19.1511 142.223 18.9807 141.589 18.6396 141.179C18.2877 140.77 17.7227 140.569 16.9338 140.569C16.3474 140.569 15.6758 140.69 14.9083 140.93C14.13 141.179 13.4691 141.468 12.9039 141.813V152.803H7.43481V138.313H12.3068L12.7761 140.007H12.84C13.2131 139.815 13.661 139.606 14.1725 139.381C14.6736 139.156 15.2282 138.94 15.8038 138.739C16.3902 138.53 16.9976 138.361 17.6374 138.217C18.2663 138.08 18.9061 138.008 19.5245 138.008C20.5478 138.008 21.4648 138.185 22.2748 138.546C23.0851 138.907 23.7035 139.461 24.1191 140.192C24.5136 139.991 24.9936 139.766 25.5585 139.51C26.1235 139.261 26.7206 139.02 27.3708 138.795C28.0106 138.57 28.6715 138.377 29.3324 138.233C30.004 138.081 30.6545 138.008 31.2727 138.008C31.987 138.008 32.6479 138.097 33.2557 138.281C33.8741 138.458 34.407 138.723 34.8654 139.076C35.3239 139.429 35.6864 139.871 35.9421 140.409C36.2088 140.938 36.3365 141.565 36.3365 142.287V152.803H30.8676V143.09C30.8676 142.223 30.697 141.589 30.356 141.179C30.004 140.77 29.439 140.569 28.6501 140.569C28.0638 140.569 27.3921 140.69 26.6246 140.93C25.8464 141.179 25.1854 141.468 24.6202 141.813V152.803H19.1511Z" fill="#939399" stroke="white" stroke-width="0.7087"/>
</g>
<defs>
<clipPath id="clip0_73_2134">
<rect width="197" height="160" fill="white"/>
</clipPath>
</defs>
</svg>
