<svg width="24" height="24" viewBox="0 0 24 24" fill="none" xmlns="http://www.w3.org/2000/svg">
<path d="M3.49996 11.0001C3.36745 10.9982 3.23589 11.0227 3.11292 11.0721C2.98995 11.1215 2.87803 11.1949 2.78366 11.2879C2.68929 11.381 2.61435 11.4919 2.5632 11.6141C2.51206 11.7364 2.48572 11.8676 2.48572 12.0001C2.48572 12.1326 2.51206 12.2638 2.5632 12.3861C2.61435 12.5083 2.68929 12.6192 2.78366 12.7123C2.87803 12.8053 2.98995 12.8787 3.11292 12.9281C3.23589 12.9775 3.36745 13.002 3.49996 13.0001H20.5C20.6325 13.002 20.764 12.9775 20.887 12.9281C21.01 12.8787 21.1219 12.8053 21.2163 12.7123C21.3106 12.6192 21.3856 12.5083 21.4367 12.3861C21.4879 12.2638 21.5142 12.1326 21.5142 12.0001C21.5142 11.8676 21.4879 11.7364 21.4367 11.6141C21.3856 11.4919 21.3106 11.381 21.2163 11.2879C21.1219 11.1949 21.01 11.1215 20.887 11.0721C20.764 11.0227 20.6325 10.9982 20.5 11.0001H3.49996Z" fill="#949492"/>
</svg>
