<svg width="24" height="24" viewBox="0 0 24 24" fill="none" xmlns="http://www.w3.org/2000/svg">
<path d="M4.25011 2.5C3.90633 2.50077 3.5704 2.60279 3.28424 2.7933C2.99807 2.98382 2.77437 3.2544 2.64103 3.57127C2.5077 3.88815 2.47065 4.23727 2.53451 4.57507C2.59837 4.91286 2.76031 5.22437 3.00011 5.4707V18.5254C2.75899 18.7715 2.5959 19.0834 2.53129 19.4218C2.46668 19.7603 2.50342 20.1103 2.6369 20.428C2.77039 20.7456 2.99469 21.0168 3.28167 21.2075C3.56865 21.3982 3.90554 21.5 4.25011 21.5C4.70733 21.4995 5.14618 21.32 5.47277 21H18.5284C18.8548 21.3198 19.2932 21.4992 19.7501 21.5C20.0939 21.4992 20.4298 21.3972 20.716 21.2067C21.0022 21.0162 21.2259 20.7456 21.3592 20.4287C21.4925 20.1119 21.5296 19.7627 21.4657 19.4249C21.4019 19.0871 21.2399 18.7756 21.0001 18.5293V5.47461C21.2412 5.22846 21.4043 4.91661 21.4689 4.57815C21.5336 4.2397 21.4968 3.8897 21.3633 3.57204C21.2298 3.25438 21.0055 2.98319 20.7186 2.79248C20.4316 2.60177 20.0947 2.50003 19.7501 2.5C19.2929 2.50055 18.854 2.68001 18.5275 3H5.47179C5.14545 2.68025 4.70699 2.5008 4.25011 2.5ZM5.82921 5H18.17C18.3427 5.36438 18.6359 5.65794 19.0001 5.83105V18.1709C18.6366 18.3437 18.3438 18.6365 18.171 19H5.83019C5.6575 18.6356 5.36429 18.3421 5.00011 18.1689V5.8291C5.3636 5.6563 5.65641 5.36348 5.82921 5ZM7.75011 7C7.33611 7 7.00011 7.336 7.00011 7.75V13.75C7.00011 14.164 7.33611 14.5 7.75011 14.5H13.7501C14.1641 14.5 14.5001 14.164 14.5001 13.75V7.75C14.5001 7.336 14.1641 7 13.7501 7H7.75011ZM15.5001 9.5V15.5H9.50011V16.25C9.50011 16.664 9.83611 17 10.2501 17H16.2501C16.6641 17 17.0001 16.664 17.0001 16.25V10.25C17.0001 9.836 16.6641 9.5 16.2501 9.5H15.5001Z" fill="#A7C100"/>
</svg>
