<svg width="24" height="24" viewBox="0 0 24 24" fill="none" xmlns="http://www.w3.org/2000/svg">
<path d="M4.25007 2.5C3.85277 2.50004 3.46731 2.63527 3.15706 2.88346C2.84682 3.13164 2.63025 3.47801 2.54299 3.8656C2.45572 4.2532 2.50293 4.65896 2.67687 5.01616C2.85081 5.37336 3.14112 5.66074 3.50007 5.83105V18.1709C3.14223 18.3418 2.85306 18.6292 2.67993 18.986C2.50679 19.3428 2.45997 19.7478 2.54712 20.1346C2.63428 20.5215 2.85025 20.8673 3.15964 21.1153C3.46903 21.3634 3.85351 21.499 4.25007 21.5C4.58089 21.4996 4.90482 21.4055 5.18431 21.2285C5.46379 21.0515 5.68739 20.7989 5.82917 20.5H18.17C18.3118 20.799 18.5356 21.0517 18.8153 21.2287C19.0949 21.4057 19.4191 21.4998 19.7501 21.5C20.1474 21.5 20.5328 21.3647 20.8431 21.1165C21.1533 20.8684 21.3699 20.522 21.4572 20.1344C21.5444 19.7468 21.4972 19.341 21.3233 18.9838C21.1493 18.6266 20.859 18.3393 20.5001 18.1689V5.8291C20.8579 5.65818 21.1471 5.37079 21.3202 5.01402C21.4933 4.65725 21.5402 4.25225 21.453 3.86538C21.3659 3.47852 21.1499 3.13273 20.8405 2.88466C20.5311 2.63659 20.1466 2.50097 19.7501 2.5C19.4193 2.50039 19.0953 2.59453 18.8158 2.77152C18.5363 2.94852 18.3127 3.2011 18.171 3.5H5.83015C5.6883 3.20095 5.46455 2.94827 5.18487 2.77126C4.90519 2.59426 4.58105 2.5002 4.25007 2.5ZM5.82917 5H18.17C18.3427 5.36438 18.6359 5.65794 19.0001 5.83105V18.1709C18.6366 18.3437 18.3438 18.6365 18.171 19H5.83015C5.65746 18.6356 5.36424 18.3421 5.00007 18.1689V5.8291C5.36355 5.6563 5.65636 5.36348 5.82917 5ZM7.75007 7C7.55116 7.00002 7.36041 7.07904 7.21976 7.21969C7.07911 7.36034 7.00009 7.55109 7.00007 7.75V13.75C7.00009 13.9489 7.07911 14.1397 7.21976 14.2803C7.36041 14.421 7.55116 14.5 7.75007 14.5H9.50007V16.25C9.50009 16.4489 9.57911 16.6397 9.71976 16.7803C9.86041 16.921 10.0512 17 10.2501 17H16.2501C16.449 17 16.6397 16.921 16.7804 16.7803C16.921 16.6397 17 16.4489 17.0001 16.25V10.25C17 10.0511 16.921 9.86034 16.7804 9.71969C16.6397 9.57904 16.449 9.50002 16.2501 9.5H14.5001V7.75C14.5 7.55109 14.421 7.36034 14.2804 7.21969C14.1397 7.07904 13.949 7.00002 13.7501 7H7.75007ZM8.50007 8.5H13.0001V10.127C12.9868 10.2075 12.9868 10.2896 13.0001 10.3701V13H10.3731C10.2926 12.9868 10.2105 12.9868 10.13 13H8.50007V8.5ZM14.5001 11H15.5001V15.5H11.0001V14.5H13.7501C13.949 14.5 14.1397 14.421 14.2804 14.2803C14.421 14.1397 14.5 13.9489 14.5001 13.75V11Z" fill="#949492"/>
</svg>
