<svg width="24" height="24" viewBox="0 0 24 24" fill="none" xmlns="http://www.w3.org/2000/svg">
<path d="M11.9853 2.48644C11.7203 2.49032 11.4676 2.59927 11.2828 2.78934C11.0981 2.97941 10.9963 3.23506 11 3.50011V11.0001H3.49996C3.36745 10.9982 3.23589 11.0227 3.11292 11.0721C2.98995 11.1215 2.87803 11.1949 2.78366 11.2879C2.68929 11.381 2.61435 11.4919 2.5632 11.6141C2.51206 11.7364 2.48572 11.8676 2.48572 12.0001C2.48572 12.1326 2.51206 12.2638 2.5632 12.3861C2.61435 12.5084 2.68929 12.6192 2.78366 12.7123C2.87803 12.8053 2.98995 12.8787 3.11292 12.9281C3.23589 12.9775 3.36745 13.002 3.49996 13.0001H11V20.5001C10.9981 20.6326 11.0226 20.7642 11.072 20.8871C11.1214 21.0101 11.1948 21.122 11.2878 21.2164C11.3808 21.3108 11.4917 21.3857 11.614 21.4369C11.7362 21.488 11.8674 21.5143 12 21.5143C12.1325 21.5143 12.2637 21.488 12.3859 21.4369C12.5082 21.3857 12.6191 21.3108 12.7121 21.2164C12.8052 21.122 12.8785 21.0101 12.9279 20.8871C12.9774 20.7642 13.0018 20.6326 13 20.5001V13.0001H20.5C20.6325 13.002 20.764 12.9775 20.887 12.9281C21.01 12.8787 21.1219 12.8053 21.2163 12.7123C21.3106 12.6192 21.3856 12.5084 21.4367 12.3861C21.4879 12.2638 21.5142 12.1326 21.5142 12.0001C21.5142 11.8676 21.4879 11.7364 21.4367 11.6141C21.3856 11.4919 21.3106 11.381 21.2163 11.2879C21.1219 11.1949 21.01 11.1215 20.887 11.0721C20.764 11.0227 20.6325 10.9982 20.5 11.0001H13V3.50011C13.0018 3.3664 12.9768 3.23369 12.9264 3.10981C12.8761 2.98594 12.8014 2.87342 12.7068 2.77891C12.6122 2.6844 12.4996 2.60983 12.3757 2.55959C12.2518 2.50935 12.119 2.48448 11.9853 2.48644Z" fill="#949492"/>
</svg>
