<svg width="16" height="16" viewBox="0 0 16 16" fill="none" xmlns="http://www.w3.org/2000/svg">
<path d="M7.99967 1.33301C4.87609 1.33301 2.33301 3.87609 2.33301 6.99967C2.33301 8.40194 2.84744 9.68795 3.69238 10.6768L3.69499 10.6794L3.69694 10.682C3.69694 10.682 6.10758 13.4327 6.96582 14.2516C7.54053 14.7996 8.45817 14.7996 9.03288 14.2516C10.0111 13.3186 12.3031 10.6807 12.3031 10.6807L12.3044 10.6787L12.3063 10.6768C13.152 9.68794 13.6663 8.40194 13.6663 6.99967C13.6663 3.87609 11.1233 1.33301 7.99967 1.33301ZM7.99967 2.33301C10.5828 2.33301 12.6663 4.41659 12.6663 6.99967C12.6663 8.15808 12.2442 9.21054 11.5459 10.027C11.5414 10.0322 9.19635 12.7142 8.34277 13.5283C8.14482 13.7171 7.85388 13.7171 7.65592 13.5283C6.94253 12.8476 4.46004 10.0352 4.4528 10.027L4.45215 10.0264C3.75478 9.20995 3.33301 8.15776 3.33301 6.99967C3.33301 4.41659 5.41659 2.33301 7.99967 2.33301ZM7.99967 4.99967C7.37467 4.99967 6.84261 5.25205 6.50098 5.63639C6.15934 6.02073 5.99967 6.51356 5.99967 6.99967C5.99967 7.48579 6.15934 7.97861 6.50098 8.36296C6.84261 8.7473 7.37467 8.99967 7.99967 8.99967C8.62467 8.99967 9.15674 8.7473 9.49837 8.36296C9.84001 7.97861 9.99967 7.48579 9.99967 6.99967C9.99967 6.51356 9.84001 6.02073 9.49837 5.63639C9.15674 5.25205 8.62467 4.99967 7.99967 4.99967ZM7.99967 5.99967C8.37467 5.99967 8.59261 6.1223 8.75098 6.30046C8.90934 6.47861 8.99967 6.73579 8.99967 6.99967C8.99967 7.26356 8.90934 7.52073 8.75098 7.69889C8.59261 7.87705 8.37467 7.99967 7.99967 7.99967C7.62467 7.99967 7.40674 7.87705 7.24837 7.69889C7.09001 7.52073 6.99967 7.26356 6.99967 6.99967C6.99967 6.73579 7.09001 6.47861 7.24837 6.30046C7.40674 6.1223 7.62467 5.99967 7.99967 5.99967Z" fill="#7C5BFF"/>
</svg>
