<svg width="11" height="7" viewBox="0 0 11 7" fill="none" xmlns="http://www.w3.org/2000/svg">
<path d="M7.34664 0.621187C7.41556 0.546671 7.50938 0.503268 7.60824 0.500174C7.68488 0.497799 7.76043 0.519805 7.82496 0.563308C7.8895 0.60681 7.94002 0.66978 7.96991 0.743965C7.99979 0.81815 8.00765 0.900089 7.99244 0.979044C7.97724 1.058 7.93968 1.13029 7.8847 1.18643L4.70713 4.52455L5.66907 5.5351L10.3466 0.621187C10.4156 0.546671 10.5094 0.503268 10.6082 0.500174C10.6849 0.497799 10.7604 0.519805 10.825 0.563308C10.8895 0.60681 10.94 0.66978 10.9699 0.743965C10.9998 0.81815 11.0076 0.900089 10.9924 0.979044C10.9772 1.058 10.9397 1.13029 10.8847 1.18643L5.9381 6.38297C5.86674 6.4579 5.76997 6.5 5.66907 6.5C5.56817 6.5 5.4714 6.4579 5.40004 6.38297L4.16907 5.0898L2.9381 6.38297C2.86674 6.4579 2.76997 6.5 2.66907 6.5C2.56817 6.5 2.4714 6.4579 2.40004 6.38297L0.116989 3.98457C0.0804709 3.94773 0.0513153 3.90362 0.0312304 3.8548C0.0111454 3.80598 0.000534689 3.75344 1.96922e-05 3.70026C-0.000495304 3.64708 0.00909575 3.59432 0.0282312 3.54509C0.0473666 3.49585 0.0756617 3.45112 0.111459 3.41351C0.147257 3.3759 0.189838 3.34618 0.236708 3.32608C0.283577 3.30597 0.333794 3.2959 0.384417 3.29644C0.43504 3.29698 0.485051 3.30813 0.531522 3.32923C0.577993 3.35033 0.619989 3.38096 0.655051 3.41932L2.66907 5.5351L3.63101 4.52455L3.11699 3.98457C3.08047 3.94773 3.05132 3.90362 3.03123 3.8548C3.01115 3.80598 3.00053 3.75344 3.00002 3.70026C2.9995 3.64708 3.0091 3.59432 3.02823 3.54509C3.04737 3.49585 3.07566 3.45112 3.11146 3.41351C3.14726 3.3759 3.18984 3.34618 3.23671 3.32608C3.28358 3.30597 3.33379 3.2959 3.38442 3.29644C3.43504 3.29698 3.48505 3.30813 3.53152 3.32923C3.57799 3.35033 3.61999 3.38096 3.65505 3.41932L4.16907 3.95931L7.34664 0.621187Z" fill="white"/>
</svg>
