<svg width="40" height="40" viewBox="0 0 40 40" fill="none" xmlns="http://www.w3.org/2000/svg">
<g clip-path="url(#clip0_306_6854)">
<path d="M39.5 20C39.5 30.7239 30.7239 39.5 20 39.5C9.27614 39.5 0.5 30.7239 0.5 20C0.5 9.27614 9.27614 0.5 20 0.5C30.7239 0.5 39.5 9.27614 39.5 20Z" stroke="#A7C100"/>
<path d="M20 8C17.3586 8 15.2001 10.1575 15.2001 12.7977V20.7939C15.2001 23.4341 17.3586 25.5917 20 25.5917C22.6414 25.5917 24.8 23.4341 24.8 20.7939V12.7977C24.8 10.1575 22.6414 8 20 8ZM20 9.59924C21.7767 9.59924 23.2 11.0219 23.2 12.7977V20.7939C23.2 22.5698 21.7767 23.9924 20 23.9924C18.2233 23.9924 16.8 22.5698 16.8 20.7939V12.7977C16.8 11.0219 18.2233 9.59924 20 9.59924ZM12.7876 18.1171C12.5756 18.1204 12.3736 18.2077 12.2259 18.3597C12.0783 18.5118 11.997 18.7163 12.0001 18.9281V20.7939C12.0001 24.9309 15.1649 28.3467 19.2 28.7495V31.189C19.1985 31.295 19.2181 31.4002 19.2576 31.4985C19.2972 31.5968 19.3558 31.6863 19.4303 31.7618C19.5047 31.8372 19.5934 31.8971 19.6912 31.938C19.789 31.9789 19.894 32 20 32C20.106 32 20.211 31.9789 20.3088 31.938C20.4066 31.8971 20.4953 31.8372 20.5697 31.7618C20.6442 31.6863 20.7028 31.5968 20.7424 31.4985C20.7819 31.4002 20.8015 31.295 20.8 31.189V28.7495C24.8351 28.3467 27.9999 24.9309 27.9999 20.7939V18.9281C28.0014 18.8222 27.9818 18.717 27.9423 18.6187C27.9028 18.5203 27.8441 18.4308 27.7697 18.3554C27.6952 18.2799 27.6065 18.22 27.5087 18.1791C27.4109 18.1382 27.3059 18.1171 27.1999 18.1171C27.0939 18.1171 26.9889 18.1382 26.8911 18.1791C26.7933 18.22 26.7046 18.2799 26.6302 18.3554C26.5558 18.4308 26.4971 18.5203 26.4576 18.6187C26.418 18.717 26.3984 18.8222 26.3999 18.9281V20.7939C26.3999 24.3045 23.5945 27.1348 20.0948 27.1857C20.0592 27.1812 20.0234 27.1791 19.9875 27.1794C19.9582 27.1799 19.929 27.182 19.9 27.1857C16.4028 27.132 13.6001 24.3027 13.6001 20.7939V18.9281C13.6016 18.8211 13.5816 18.7149 13.5413 18.6157C13.501 18.5165 13.4412 18.4265 13.3654 18.3508C13.2897 18.2752 13.1995 18.2155 13.1002 18.1754C13.001 18.1352 12.8946 18.1154 12.7876 18.1171Z" fill="#A7C100"/>
</g>
<defs>
<clipPath id="clip0_306_6854">
<rect width="40" height="40" fill="white"/>
</clipPath>
</defs>
</svg>
