<svg width="18" height="18" viewBox="0 0 18 18" fill="none" xmlns="http://www.w3.org/2000/svg">
<path d="M8.04606 1C4.16097 1 1 4.16097 1 8.04606C1 11.9314 4.16097 15.0921 8.04606 15.0921C11.9314 15.0921 15.0921 11.9314 15.0921 8.04606C15.0921 4.16097 11.9314 1 8.04606 1ZM8.04606 13.7913C4.87815 13.7913 2.30081 11.214 2.30081 8.04609C2.30081 4.87819 4.87815 2.30081 8.04606 2.30081C11.214 2.30081 13.7913 4.87815 13.7913 8.04606C13.7913 11.214 11.214 13.7913 8.04606 13.7913Z" fill="#C7C7C5" stroke="#C7C7C5" stroke-width="0.3"/>
<path d="M16.8092 15.8893L13.0802 12.1603C12.8261 11.9062 12.4146 11.9062 12.1605 12.1603C11.9064 12.4142 11.9064 12.8261 12.1605 13.08L15.8896 16.809C16.0166 16.936 16.1829 16.9996 16.3494 16.9996C16.5157 16.9996 16.6822 16.936 16.8092 16.809C17.0633 16.5551 17.0633 16.1432 16.8092 15.8893Z" fill="#C7C7C5" stroke="#C7C7C5" stroke-width="0.3"/>
</svg>
