<svg width="24" height="24" viewBox="0 0 24 24" fill="none" xmlns="http://www.w3.org/2000/svg">
<path d="M8.85344 11.6034L11.4999 8.95719V16.2499C11.4999 16.5259 11.7239 16.7499 11.9999 16.7499C12.2759 16.7499 12.4999 16.5259 12.4999 16.2499V8.95719L15.1464 11.6037C15.2439 11.7012 15.3719 11.7499 15.4999 11.7499C15.6279 11.7499 15.7559 11.7012 15.8534 11.6034C16.0487 11.4082 16.0487 11.0917 15.8534 10.8964L12.3534 7.39644C12.1584 7.20119 11.8414 7.20119 11.6464 7.39644L8.14644 10.8964C7.95119 11.0917 7.95119 11.4082 8.14644 11.6034C8.34144 11.7987 8.65844 11.7987 8.85344 11.6034Z" fill="black"/>
<rect x="0.5" y="0.5" width="23" height="23" rx="7.5" stroke="#E0E0DE"/>
</svg>
