<svg width="8" height="7" viewBox="0 0 8 7" fill="none" xmlns="http://www.w3.org/2000/svg">
<path d="M7.60824 0.500174C7.50938 0.503268 7.41556 0.546671 7.34664 0.621187L2.66907 5.5351L0.655051 3.41932C0.619989 3.38096 0.577993 3.35033 0.531522 3.32923C0.485051 3.30813 0.43504 3.29698 0.384417 3.29644C0.333794 3.2959 0.283577 3.30597 0.236708 3.32608C0.189838 3.34618 0.147257 3.3759 0.111459 3.41351C0.0756617 3.45112 0.0473666 3.49585 0.0282312 3.54509C0.00909574 3.59432 -0.000495304 3.64708 1.96922e-05 3.70026C0.000534689 3.75344 0.0111454 3.80598 0.0312304 3.8548C0.0513153 3.90362 0.0804709 3.94773 0.116989 3.98457L2.40004 6.38297C2.4714 6.4579 2.56817 6.5 2.66907 6.5C2.76997 6.5 2.86674 6.4579 2.9381 6.38297L7.8847 1.18643C7.93968 1.13029 7.97724 1.058 7.99244 0.979044C8.00765 0.900089 7.99979 0.81815 7.96991 0.743965C7.94002 0.66978 7.8895 0.60681 7.82496 0.563308C7.76043 0.519805 7.68488 0.497799 7.60824 0.500174Z" fill="white"/>
</svg>
